<?xml version="1.0" encoding="UTF-8" standalone="no"?>
<!DOCTYPE svg PUBLIC "-//W3C//DTD SVG 1.1//EN" "http://www.w3.org/Graphics/SVG/1.1/DTD/svg11.dtd">
<svg width="100%" height="100%" viewBox="0 0 512 512" version="1.1" xmlns="http://www.w3.org/2000/svg" xmlns:xlink="http://www.w3.org/1999/xlink" xml:space="preserve" xmlns:serif="http://www.serif.com/" style="fill-rule:evenodd;clip-rule:evenodd;stroke-linejoin:round;stroke-miterlimit:2;">
    <path d="M482,336C493.05,336 502,344.95 502,356C502,367.04 493.04,376 482,376L30,376C18.95,376 10,367.05 10,356C10,344.96 18.96,336 30,336L482,336Z" style="fill:rgb(212,212,212);fill-rule:nonzero;"/>
    <g>
        <path d="M480.61,213.54C482.04,224.99 473.34,235.18 462,235.94C461.54,235.98 461.08,236 460.62,236L51.38,236C50.92,236 50.46,235.98 50,235.94C38.66,235.18 29.96,224.99 31.39,213.54C42.44,124.73 118.2,56 210,56L302,56C393.8,56 469.56,124.73 480.61,213.54Z" style="fill:rgb(204,63,43);fill-rule:nonzero;"/>
        <path d="M458.54,376C471.91,376 482.07,389.04 477.79,401.69C467.08,433.27 437.2,456 402,456L110,456C74.8,456 44.92,433.27 34.21,401.69C29.93,389.04 40.09,376 53.46,376L458.54,376Z" style="fill:rgb(204,63,43);fill-rule:nonzero;"/>
    </g>
    <path d="M462,289L462,336L50,336L50,288.24C67.63,301.81 89.48,300.84 106.5,285.31C124.67,268.74 148.33,268.74 166.5,285.31C184.67,301.88 208.33,301.88 226.5,285.31C244.67,268.74 268.33,268.74 286.5,285.31C304.67,301.88 328.33,301.88 346.5,285.31C364.67,268.74 388.33,268.74 406.5,285.31C423.2,300.54 444.54,301.77 462,289Z" style="fill:rgb(109,109,109);fill-rule:nonzero;"/>
    <path d="M462,235.94L462,289C444.54,301.77 423.2,300.54 406.5,285.31C388.33,268.74 364.67,268.74 346.5,285.31C328.33,301.88 304.67,301.88 286.5,285.31C268.33,268.74 244.67,268.74 226.5,285.31C208.33,301.88 184.67,301.88 166.5,285.31C148.33,268.74 124.67,268.74 106.5,285.31C89.48,300.84 67.63,301.81 50,288.24L50,235.94C50.46,235.98 50.92,236 51.38,236L460.62,236C461.08,236 461.54,235.98 462,235.94Z" style="fill:rgb(233,233,233);fill-rule:nonzero;"/>
    <path d="M363.071,183.071L383.071,163.071C386.976,159.166 386.976,152.834 383.071,148.928C379.166,145.024 372.834,145.024 368.928,148.928L348.928,168.928C345.023,172.833 345.023,179.165 348.928,183.071C352.835,186.977 359.166,186.976 363.071,183.071Z" style="fill-rule:nonzero;"/>
    <path d="M123.071,183.071L143.071,163.071C146.976,159.166 146.976,152.834 143.071,148.928C139.166,145.024 132.834,145.024 128.928,148.928L108.928,168.928C105.023,172.833 105.023,179.165 108.928,183.071C112.835,186.977 119.166,186.976 123.071,183.071Z" style="fill-rule:nonzero;"/>
    <path d="M313.071,143.071L333.071,123.071C336.976,119.166 336.976,112.834 333.071,108.928C329.166,105.024 322.834,105.024 318.928,108.928L298.928,128.928C295.023,132.833 295.023,139.165 298.928,143.071C302.835,146.977 309.166,146.976 313.071,143.071Z" style="fill-rule:nonzero;"/>
    <path d="M193.071,143.071L213.071,123.071C216.976,119.166 216.976,112.834 213.071,108.928C209.166,105.024 202.834,105.024 198.928,108.928L178.928,128.928C175.023,132.833 175.023,139.165 178.928,143.071C182.835,146.977 189.166,146.976 193.071,143.071Z" style="fill-rule:nonzero;"/>
    <path d="M243.071,183.071L263.071,163.071C266.976,159.166 266.976,152.834 263.071,148.928C259.166,145.024 252.834,145.024 248.928,148.928L228.928,168.928C225.023,172.833 225.023,179.165 228.928,183.071C232.835,186.977 239.166,186.976 243.071,183.071Z" style="fill-rule:nonzero;"/>
    <path d="M482,326L472,326L472,293.77C472.412,293.412 472.832,293.069 473.237,292.7C479.728,286.783 493.286,283 502.126,282.888C507.648,282.819 512.069,278.285 511.999,272.763C511.93,267.284 507.467,262.889 502.002,262.889C501.96,262.889 501.916,262.889 501.874,262.89C493.293,262.998 481.892,265.276 472,269.953L472,243.74C484.176,238.757 492.271,226.221 490.533,212.305C478.737,117.496 397.686,46 302,46L210,46C114.314,46 33.263,117.496 21.467,212.301C19.734,226.176 27.774,238.738 40,243.741L40,269.512C30.071,265.014 18.643,262.764 9.869,262.89C4.347,262.962 -0.071,267.498 0.001,273.021C0.073,278.499 4.536,282.889 9.998,282.889C10.042,282.889 10.087,282.889 10.132,282.888C19.074,282.751 32.954,286.487 39.724,292.662C39.814,292.745 39.91,292.823 40.001,292.905L40.001,326L30,326C13.426,326 0,339.424 0,356C0,370.865 10.87,383.233 25.078,385.589C22.741,391.758 22.573,398.498 24.74,404.902C37.134,441.446 71.397,466 110,466L402,466C440.603,466 474.866,441.446 487.263,404.896C489.428,398.498 489.26,391.761 486.924,385.593C500.864,383.301 512,371.17 512,356C512,339.458 498.542,326 482,326ZM60,246L452,246L452,283.555C439.241,290.654 425.047,288.689 413.238,277.92C391.263,257.881 361.736,257.881 339.761,277.92C325.412,291.004 307.586,291.004 293.238,277.92C271.263,257.881 241.736,257.881 219.761,277.92C205.412,291.004 187.586,291.004 173.238,277.92C151.263,257.882 121.736,257.88 99.759,277.922C87.598,289.02 73.029,290.781 60,282.975L60,246ZM41.313,214.774C51.867,129.959 124.386,66 210,66L302,66C387.614,66 460.133,129.959 470.687,214.779C471.409,220.558 466.9,225.59 461.331,225.963C461.265,225.967 461.199,225.973 461.133,225.979C460.962,225.994 460.791,226 460.62,226L51.38,226C45.49,226 40.56,220.814 41.313,214.774ZM60,304.943C65.407,306.814 70.956,307.75 76.5,307.749C89.405,307.749 102.276,302.701 113.239,292.698C127.587,279.614 145.414,279.614 159.762,292.698C181.737,312.739 211.265,312.738 233.239,292.698C247.588,279.614 265.415,279.614 279.762,292.698C301.737,312.739 331.265,312.738 353.239,292.698C367.587,279.613 385.414,279.615 399.762,292.698C415.059,306.65 434.265,310.938 452,305.243L452,326L60,326L60,304.943ZM468.32,398.479C458.68,426.902 432.028,446 402,446L110,446C79.972,446 53.32,426.902 43.683,398.485C41.608,392.355 46.901,386 53.46,386L458.54,386C465.123,386 470.382,392.385 468.32,398.479ZM482,366L30,366C24.486,366 20,361.514 20,356C20,350.479 24.479,346 30,346L482,346C487.514,346 492,350.486 492,356C492,361.521 487.521,366 482,366Z" style="fill-rule:nonzero;"/>
</svg>
