<?xml version="1.0" encoding="UTF-8" standalone="no"?>
<!DOCTYPE svg PUBLIC "-//W3C//DTD SVG 1.1//EN" "http://www.w3.org/Graphics/SVG/1.1/DTD/svg11.dtd">
<svg width="100%" height="100%" viewBox="0 0 478 478" version="1.1" xmlns="http://www.w3.org/2000/svg" xmlns:xlink="http://www.w3.org/1999/xlink" xml:space="preserve" xmlns:serif="http://www.serif.com/" style="fill-rule:evenodd;clip-rule:evenodd;stroke-linejoin:round;stroke-miterlimit:2;">
    <g>
        <g>
            <path d="M438.482,58.61C413.782,32.061 379.171,16.955 342.909,16.899C306.618,16.941 271.971,32.039 247.233,58.593L238.802,67.502L230.371,58.593C181.284,5.762 98.663,2.728 45.832,51.815C43.491,53.991 41.23,56.251 39.054,58.593C-13.018,114.759 -13.018,201.561 39.054,257.727L226.412,455.308C232.894,462.151 243.696,462.444 250.539,455.962C250.763,455.75 250.981,455.532 251.193,455.308L438.483,257.727C490.551,201.567 490.551,114.77 438.482,58.61Z" style="fill:rgb(204,63,43);fill-rule:nonzero;"/>
        </g>
    </g>
</svg>
