<?xml version="1.0" encoding="UTF-8" standalone="no"?>
<!DOCTYPE svg PUBLIC "-//W3C//DTD SVG 1.1//EN" "http://www.w3.org/Graphics/SVG/1.1/DTD/svg11.dtd">
<svg width="100%" height="100%" viewBox="0 0 1200 200" version="1.1" xmlns="http://www.w3.org/2000/svg" xmlns:xlink="http://www.w3.org/1999/xlink" xml:space="preserve" xmlns:serif="http://www.serif.com/" style="fill-rule:evenodd;clip-rule:evenodd;stroke-miterlimit:2;">
    <g id="Artboard1" transform="matrix(0.46875,0,0,0.078125,0,0)">
        <rect x="0" y="0" width="2560" height="2560" style="fill:none;"/>
        <g transform="matrix(2.13333,0,0,12.8,0,-76.8)">
            <path d="M754.7,166L705,166L705,46L1160,46L1160,166L1108.44,166L1108.44,70.833L1098.1,70.833L1098.1,150.025L1048.94,70.833L1038.74,70.833L1038.74,166L1009.7,166L1009.7,70.833L990.15,70.833L990.15,80.183L999.5,80.467L999.5,166L965.358,166L965.358,127.5L943.117,127.5L946.517,137.417L955.442,137.417L955.442,143.65C955.442,149.222 953.718,153.567 950.271,156.683C946.824,159.8 942.361,161.358 936.883,161.358C931.028,161.358 926.306,159.824 922.717,156.754C919.128,153.685 917.333,149.269 917.333,143.508L917.333,97.467C917.333,85.378 923.944,79.333 937.167,79.333C941.794,79.333 946.658,80.278 951.758,82.167L954.733,74.233C948.783,71.117 942.125,69.558 934.758,69.558C928.714,69.558 923.614,70.739 919.458,73.1C915.492,75.556 912.446,78.79 910.321,82.804C908.196,86.818 907.133,92.131 907.133,98.742L907.133,143.225C907.133,149.553 908.526,154.842 911.312,159.092C913.143,161.883 915.35,164.186 917.934,166L871.162,166C871.71,165.629 872.249,165.238 872.779,164.829C878.587,160.343 881.492,153.331 881.492,143.792L881.492,98.317C881.492,89.061 878.918,81.789 873.771,76.5C868.624,71.211 861.375,68.567 852.025,68.567C842.675,68.567 835.332,71.069 829.996,76.075C824.66,81.081 821.992,88.447 821.992,98.175L821.992,143.792C821.992,150.308 823.432,155.644 826.312,159.8C828.03,162.278 830.042,164.345 832.348,166L805.842,166L805.842,160.792L764.9,160.792L764.9,70.833L754.7,70.833L754.7,166ZM955.31,166L954.686,166C954.846,165.872 955.003,165.741 955.158,165.608L955.31,166ZM1095.62,166L1048.94,166L1048.94,90.667L1095.62,166ZM871.292,98.883C871.292,92.367 869.615,87.408 866.262,84.008C862.91,80.608 858.069,78.908 851.742,78.908C845.414,78.908 840.574,80.585 837.221,83.937C833.868,87.29 832.192,92.272 832.192,98.883L832.192,142.942C832.192,148.986 833.986,153.59 837.575,156.754C841.164,159.918 845.886,161.5 851.742,161.5C857.597,161.5 862.319,159.918 865.908,156.754C869.497,153.59 871.292,148.892 871.292,142.658L871.292,98.883Z" style="fill:rgb(204,63,43);"/>
        </g>
        <g transform="matrix(2.13333,0,0,12.8,-1075.65,-10719.8)">
            <text x="532.512px" y="992.987px" style="font-family:'AdventPro-Bold', 'Advent Pro';font-weight:700;font-size:150px;stroke:black;stroke-width:3.96px;">P<tspan x="622.662px 671.562px 748.812px 831.312px 917.862px 1029.46px 1083.91px " y="992.987px 992.987px 992.987px 992.987px 992.987px 992.987px 992.987px ">iEDAXIN</tspan></text>
        </g>
    </g>
</svg>
