<?xml version="1.0" encoding="UTF-8" standalone="no"?>
<!DOCTYPE svg PUBLIC "-//W3C//DTD SVG 1.1//EN" "http://www.w3.org/Graphics/SVG/1.1/DTD/svg11.dtd">
<svg width="100%" height="100%" viewBox="0 0 1200 200" version="1.1" xmlns="http://www.w3.org/2000/svg" xmlns:xlink="http://www.w3.org/1999/xlink" xml:space="preserve" xmlns:serif="http://www.serif.com/" style="fill-rule:evenodd;clip-rule:evenodd;stroke-miterlimit:2;">
    <g id="Artboard1" transform="matrix(0.46875,0,0,0.078125,0,0)">
        <rect x="0" y="0" width="2560" height="2560" style="fill:none;"/>
        <g transform="matrix(2.13333,0,0,12.8,0,-76.8)">
            <path d="M754.7,166L705,166L705,46L1160,46L1160,166L1108.44,166L1108.44,70.833L1098.1,70.833L1098.1,150.025L1048.94,70.833L1038.74,70.833L1038.74,166L1009.7,166L1009.7,70.833L990.15,70.833L990.15,80.183L999.5,80.467L999.5,166L965.358,166L965.358,127.5L943.117,127.5L946.517,137.417L955.442,137.417L955.442,143.65C955.442,149.222 953.718,153.567 950.271,156.683C946.824,159.8 942.361,161.358 936.883,161.358C931.028,161.358 926.306,159.824 922.717,156.754C919.128,153.685 917.333,149.269 917.333,143.508L917.333,97.467C917.333,85.378 923.944,79.333 937.167,79.333C941.794,79.333 946.658,80.278 951.758,82.167L954.733,74.233C948.783,71.117 942.125,69.558 934.758,69.558C928.714,69.558 923.614,70.739 919.458,73.1C915.492,75.556 912.446,78.79 910.321,82.804C908.196,86.818 907.133,92.131 907.133,98.742L907.133,143.225C907.133,149.553 908.526,154.842 911.312,159.092C913.143,161.883 915.35,164.186 917.934,166L871.162,166C871.71,165.629 872.249,165.238 872.779,164.829C878.587,160.343 881.492,153.331 881.492,143.792L881.492,98.317C881.492,89.061 878.918,81.789 873.771,76.5C868.624,71.211 861.375,68.567 852.025,68.567C842.675,68.567 835.332,71.069 829.996,76.075C824.66,81.081 821.992,88.447 821.992,98.175L821.992,143.792C821.992,150.308 823.432,155.644 826.312,159.8C828.03,162.278 830.042,164.345 832.348,166L805.842,166L805.842,160.792L764.9,160.792L764.9,70.833L754.7,70.833L754.7,166ZM955.31,166L954.686,166C954.846,165.872 955.003,165.741 955.158,165.608L955.31,166ZM1095.62,166L1048.94,166L1048.94,90.667L1095.62,166ZM871.292,98.883C871.292,92.367 869.615,87.408 866.262,84.008C862.91,80.608 858.069,78.908 851.742,78.908C845.414,78.908 840.574,80.585 837.221,83.937C833.868,87.29 832.192,92.272 832.192,98.883L832.192,142.942C832.192,148.986 833.986,153.59 837.575,156.754C841.164,159.918 845.886,161.5 851.742,161.5C857.597,161.5 862.319,159.918 865.908,156.754C869.497,153.59 871.292,148.892 871.292,142.658L871.292,98.883Z" style="fill:rgb(204,63,43);"/>
        </g>
        <g transform="matrix(2.13333,0,0,12.8,-1075.65,-10719.8)">
            <g>
                <g transform="matrix(1,0,0,1,532.512,992.987)">
                    <path d="M11.7,-105L45.9,-105C56.4,-105 64.175,-101.625 69.225,-94.875C74.275,-88.125 76.8,-79.65 76.8,-69.45C76.8,-42.65 66.95,-29.25 47.25,-29.25L28.2,-29.25L28.2,0L11.7,0L11.7,-105ZM42.3,-45C48,-45 52.175,-46.25 54.825,-48.75C57.475,-51.25 59.05,-54.075 59.55,-57.225C60.05,-60.375 60.3,-64.35 60.3,-69.15C60.3,-74.45 59.575,-78.525 58.125,-81.375C56.675,-84.225 54.625,-86.125 51.975,-87.075C49.325,-88.025 45.9,-88.5 41.7,-88.5L28.2,-88.5L28.2,-45L42.3,-45Z" style="fill-rule:nonzero;stroke:black;stroke-width:3.96px;"/>
                </g>
                <g transform="matrix(1,0,0,1,622.662,992.987)">
                    <path d="M20.7,-88.8C18.3,-88.8 16.2,-89.7 14.4,-91.5C12.6,-93.3 11.7,-95.4 11.7,-97.8C11.7,-100.1 12.6,-102.125 14.4,-103.875C16.2,-105.625 18.3,-106.5 20.7,-106.5C23,-106.5 25.025,-105.625 26.775,-103.875C28.525,-102.125 29.4,-100.1 29.4,-97.8C29.4,-95.4 28.525,-93.3 26.775,-91.5C25.025,-89.7 23,-88.8 20.7,-88.8ZM12,-75.15L28.5,-75.15L28.5,0L12,0L12,-75.15Z" style="fill-rule:nonzero;stroke:black;stroke-width:3.96px;"/>
                    <path d="M53.1,-105L103.2,-105L103.2,-88.5L69.6,-88.5L69.6,-61.95L90.15,-61.95L85.5,-46.2L69.6,-46.2L69.6,-15L102.9,-15L102.9,0L53.1,0L53.1,-105Z" style="fill-rule:nonzero;stroke:black;stroke-width:3.96px;"/>
                    <path d="M122.85,-105.15L151.05,-105.15C162.35,-105.15 170.975,-102.05 176.925,-95.85C182.875,-89.65 185.85,-81.4 185.85,-71.1L185.85,-30C185.85,-10 175.25,0 154.05,0L122.85,0L122.85,-105.15ZM169.35,-72.6C169.35,-78.1 167.975,-82.125 165.225,-84.675C162.475,-87.225 158.25,-88.5 152.55,-88.5L139.35,-88.5L139.35,-15.15L151.65,-15.15C157.05,-15.15 161.35,-15.975 164.55,-17.625C167.75,-19.275 169.35,-22.9 169.35,-28.5L169.35,-72.6Z" style="fill-rule:nonzero;stroke:black;stroke-width:3.96px;"/>
                    <path d="M237.9,-27.45L213.75,-27.45L207.9,0L189.3,0L213.9,-105L237.15,-105L263.7,0L244.05,0L237.9,-27.45ZM217.65,-45L234,-45L225.45,-77.4L217.65,-45Z" style="fill-rule:nonzero;stroke:black;stroke-width:3.96px;"/>
                    <path d="M319.5,-36.6L297.45,0L276.9,0L309.6,-52.5L278.7,-105L298.2,-105L320.25,-70.2L341.25,-105L360.9,-105L330.15,-53.85L363.45,0L342.3,0L319.5,-36.6Z" style="fill-rule:nonzero;stroke:black;stroke-width:3.96px;"/>
                    <path d="M387.75,-88.8L378.45,-89.1L378.45,-105L404.25,-105L404.25,0L387.75,0L387.75,-88.8Z" style="fill-rule:nonzero;stroke:black;stroke-width:3.96px;"/>
                    <path d="M444.45,-70.95L444.45,0L427.95,0L427.95,-105L444.45,-105L485.1,-34.5L485.1,-105L501.75,-105L501.75,0L485.1,0L444.45,-70.95Z" style="fill-rule:nonzero;stroke:black;stroke-width:3.96px;"/>
                </g>
            </g>
        </g>
    </g>
</svg>
