<?xml version="1.0" encoding="UTF-8" standalone="no"?>
<!DOCTYPE svg PUBLIC "-//W3C//DTD SVG 1.1//EN" "http://www.w3.org/Graphics/SVG/1.1/DTD/svg11.dtd">
<svg width="100%" height="100%" viewBox="0 0 1366 200" version="1.1" xmlns="http://www.w3.org/2000/svg" xmlns:xlink="http://www.w3.org/1999/xlink" xml:space="preserve" xmlns:serif="http://www.serif.com/" style="fill-rule:evenodd;clip-rule:evenodd;stroke-miterlimit:2;">
    <g id="Artboard1" transform="matrix(0.533594,0,0,0.078125,0,0)">
        <rect x="0" y="0" width="2560" height="2560" style="fill:none;"/>
        <g transform="matrix(1.87408,0,0,12.8,-5.62225,-2713.6)">
            <path d="M731.7,373L685,373L685,253L1351,253L1351,373L1303.53,373L1292.7,340.875C1297.8,337.664 1301.08,333.343 1302.55,327.912C1304.01,322.482 1304.74,316.225 1304.74,309.142C1304.74,299.792 1302.5,292.236 1298.01,286.475C1293.53,280.714 1286.75,277.833 1277.68,277.833L1243.26,277.833L1243.26,373L1217.33,373L1217.33,367.792L1180.5,367.792L1180.5,328.408L1202.03,328.408L1205.29,318.492L1180.5,318.492L1180.5,287.608L1217.62,287.608L1217.62,277.833L1170.3,277.833L1170.3,373L1128.37,373L1128.37,287.467L1152.17,287.467L1152.17,277.833L1095.22,277.833L1095.22,287.467L1118.17,287.467L1118.17,373L1071.66,373C1072.72,372.279 1073.7,371.487 1074.6,370.625C1080.13,365.336 1082.89,358.347 1082.89,349.658C1082.89,343.803 1081.4,338.915 1078.43,334.996C1075.45,331.076 1071.84,328.007 1067.59,325.787C1063.34,323.568 1057.86,321.231 1051.16,318.775C1046.15,316.981 1042.19,315.375 1039.26,313.958C1036.33,312.542 1033.88,310.818 1031.89,308.787C1029.91,306.757 1028.92,304.325 1028.92,301.492C1028.82,296.864 1030.69,293.204 1034.51,290.512C1038.34,287.821 1043.6,286.475 1050.31,286.475C1055.97,286.475 1061.74,287.75 1067.59,290.3L1070.71,280.667C1067.59,279.156 1064.52,278.069 1061.5,277.408C1058.48,276.747 1054.65,276.417 1050.03,276.417C1043.04,276.417 1037.16,277.574 1032.39,279.887C1027.62,282.201 1024.05,285.224 1021.69,288.954C1019.33,292.685 1018.15,296.628 1018.15,300.783C1018.15,305.978 1019.45,310.251 1022.05,313.604C1024.64,316.957 1027.83,319.601 1031.61,321.537C1035.39,323.474 1040.34,325.575 1046.48,327.842C1052.24,330.014 1056.78,331.926 1060.08,333.579C1063.39,335.232 1066.17,337.451 1068.44,340.237C1070.71,343.024 1071.84,346.494 1071.84,350.65C1071.84,356.506 1069.69,360.968 1065.4,364.037C1061.1,367.107 1055.6,368.642 1048.89,368.642C1044.55,368.642 1040.72,367.815 1037.42,366.162C1034.11,364.51 1031.49,362.337 1029.55,359.646C1027.62,356.954 1026.51,354.097 1026.22,351.075L1015.6,351.783C1015.79,356.222 1017.18,360.496 1019.78,364.604C1021.85,367.885 1024.68,370.683 1028.26,373L992.367,373L992.367,277.833L972.817,277.833L972.817,287.183L982.167,287.467L982.167,373L948.025,373L948.025,334.5L925.783,334.5L929.183,344.417L938.108,344.417L938.108,350.65C938.108,356.222 936.385,360.567 932.937,363.683C929.49,366.8 925.028,368.358 919.55,368.358C913.694,368.358 908.972,366.824 905.383,363.754C901.794,360.685 900,356.269 900,350.508L900,304.467C900,292.378 906.611,286.333 919.833,286.333C924.461,286.333 929.325,287.278 934.425,289.167L937.4,281.233C931.45,278.117 924.792,276.558 917.425,276.558C911.381,276.558 906.281,277.739 902.125,280.1C898.158,282.556 895.112,285.79 892.987,289.804C890.862,293.818 889.8,299.131 889.8,305.742L889.8,350.225C889.8,356.553 891.193,361.842 893.979,366.092C895.809,368.883 898.017,371.186 900.601,373L865.717,373L865.717,367.792L828.883,367.792L828.883,328.408L850.417,328.408L853.675,318.492L828.883,318.492L828.883,287.608L866,287.608L866,277.833L818.683,277.833L818.683,373L791.976,373L781.142,340.875C786.242,337.664 789.524,333.343 790.987,327.912C792.451,322.482 793.183,316.225 793.183,309.142C793.183,299.792 790.94,292.236 786.454,286.475C781.968,280.714 775.192,277.833 766.125,277.833L731.7,277.833L731.7,373ZM781.48,373L741.9,373L741.9,344.417L767.117,344.417C768.439,344.417 769.95,344.322 771.65,344.133L781.48,373ZM937.977,373L937.353,373C937.512,372.872 937.67,372.741 937.825,372.608L937.977,373ZM1293.04,373L1253.46,373L1253.46,344.417L1278.67,344.417C1280,344.417 1281.51,344.322 1283.21,344.133L1293.04,373ZM765.842,334.5C770.942,334.5 774.719,333.154 777.175,330.462C779.631,327.771 781.165,324.701 781.779,321.254C782.393,317.807 782.7,313.911 782.7,309.567C782.7,295.022 776.656,287.75 764.567,287.75L741.9,287.75L741.9,334.5L765.842,334.5ZM1277.4,334.5C1282.5,334.5 1286.28,333.154 1288.73,330.462C1291.19,327.771 1292.72,324.701 1293.34,321.254C1293.95,317.807 1294.26,313.911 1294.26,309.567C1294.26,295.022 1288.21,287.75 1276.12,287.75L1253.46,287.75L1253.46,334.5L1277.4,334.5Z" style="fill:rgb(204,63,43);"/>
        </g>
        <g transform="matrix(1.87408,0,0,12.8,-988.04,-10707)">
            <text x="532.512px" y="992.987px" style="font-family:'AdventPro-Bold', 'Advent Pro';font-weight:700;font-size:150px;stroke:black;stroke-width:3.96px;">P<tspan x="622.662px 671.562px 748.812px 831.312px 917.862px 1029.46px 1083.91px " y="992.987px 992.987px 992.987px 992.987px 992.987px 992.987px 992.987px ">iEDAXIN</tspan></text>
        </g>
    </g>
</svg>
