<?xml version="1.0" encoding="UTF-8" standalone="no"?>
<!DOCTYPE svg PUBLIC "-//W3C//DTD SVG 1.1//EN" "http://www.w3.org/Graphics/SVG/1.1/DTD/svg11.dtd">
<svg width="100%" height="100%" viewBox="0 0 498 498" version="1.1" xmlns="http://www.w3.org/2000/svg" xmlns:xlink="http://www.w3.org/1999/xlink" xml:space="preserve" xmlns:serif="http://www.serif.com/" style="fill-rule:evenodd;clip-rule:evenodd;stroke-linejoin:round;stroke-miterlimit:2;">
    <path d="M431.543,335.281L482.743,96.836L90.697,96.836L147.749,335.281L431.543,335.281Z" style="fill:rgb(229,67,51);fill-rule:nonzero;"/>
    <path d="M482.743,96.836L90.697,96.836L99.474,134.87L471.04,134.87L482.743,96.836Z" style="fill:rgb(166,40,31);fill-rule:nonzero;"/>
    <path d="M431.543,351.373L147.749,351.373C140.435,351.373 134.583,346.984 133.12,339.67L76.069,99.761C74.606,95.372 76.069,90.984 78.995,88.058C81.921,85.132 86.309,82.207 90.698,82.207L482.744,82.207C487.133,82.207 491.521,83.67 494.447,88.058C497.373,90.984 498.836,96.835 497.373,101.224L446.173,338.207C444.709,345.521 438.857,351.373 431.543,351.373ZM159.451,320.653L419.84,320.653L463.726,111.464L109.714,111.464L159.451,320.653Z" style="fill-rule:nonzero;"/>
    <path d="M90.697,111.464C83.383,111.464 77.531,107.075 76.068,99.761L64.366,57.338L14.629,57.338C5.851,57.338 0,50.024 0,42.71C0,35.396 7.314,28.081 14.629,28.081L76.069,28.081C83.383,28.081 89.235,32.47 90.698,39.784L105.327,93.91C106.79,101.224 102.401,108.539 95.087,111.464L90.697,111.464Z" style="fill-rule:nonzero;"/>
    <path d="M416.914,425.978L99.474,425.978C70.217,425.978 46.811,402.572 46.811,373.315C46.811,344.058 70.217,320.652 99.474,320.652L416.914,320.652C425.691,320.652 431.543,327.966 431.543,335.281C431.543,342.595 424.229,349.91 416.914,349.91L99.474,349.91C86.308,349.91 76.068,360.15 76.068,373.316C76.068,386.482 86.308,396.722 99.474,396.722L416.914,396.722C425.691,396.722 431.543,404.036 431.543,411.351C433.006,420.127 425.691,425.978 416.914,425.978Z" style="fill-rule:nonzero;"/>
    <circle cx="383.269" cy="412.813" r="42.423" style="fill:rgb(204,204,204);"/>
    <circle cx="383.269" cy="412.813" r="14.629" style="fill:rgb(137,137,137);"/>
    <path d="M383.269,469.864C351.086,469.864 324.755,443.533 324.755,411.35C324.755,379.167 351.086,352.836 383.269,352.836C415.452,352.836 441.783,379.167 441.783,411.35C441.783,443.533 415.451,469.864 383.269,469.864ZM383.269,385.018C367.178,385.018 355.475,398.184 355.475,412.812C355.475,428.903 368.641,440.606 383.269,440.606C397.897,440.606 411.063,427.44 411.063,412.812C411.063,406.675 409.148,401.177 405.967,396.722C400.808,389.497 392.318,385.018 383.269,385.018Z" style="fill-rule:nonzero;"/>
    <circle cx="150.674" cy="412.813" r="42.423" style="fill:rgb(204,204,204);"/>
    <circle cx="150.674" cy="412.813" r="14.629" style="fill:rgb(146,146,146);"/>
    <path d="M150.674,469.864C118.491,469.864 92.16,443.533 92.16,411.35C92.16,379.167 118.491,352.836 150.674,352.836C182.857,352.836 209.188,379.167 209.188,411.35C209.188,443.533 182.857,469.864 150.674,469.864ZM150.674,385.018C134.583,385.018 122.88,398.184 122.88,412.812C122.88,428.903 136.046,440.606 150.674,440.606C165.302,440.606 178.468,427.44 178.468,412.812C178.469,396.721 166.766,385.018 150.674,385.018Z" style="fill-rule:nonzero;"/>
    <path d="M219.429,266.527C210.652,266.527 204.8,259.213 204.8,251.898L204.8,165.59C204.8,156.813 212.114,150.961 219.429,150.961C228.206,150.961 234.058,158.275 234.058,165.59L234.058,251.899C234.057,260.676 228.206,266.527 219.429,266.527Z" style="fill-rule:nonzero;"/>
    <path d="M286.72,266.527C277.943,266.527 272.091,259.213 272.091,251.898L272.091,165.59C272.091,156.813 279.405,150.961 286.72,150.961C295.497,150.961 301.349,158.275 301.349,165.59L301.349,251.899C301.349,260.676 295.497,266.527 286.72,266.527Z" style="fill-rule:nonzero;"/>
    <path d="M354.011,266.527C345.234,266.527 339.382,259.213 339.382,251.898L339.382,165.59C339.382,156.813 346.696,150.961 354.011,150.961C362.788,150.961 368.64,158.275 368.64,165.59L368.64,251.899C368.64,260.676 362.789,266.527 354.011,266.527Z" style="fill-rule:nonzero;"/>
</svg>
